<?xml version="1.0" encoding="UTF-8" standalone="no"?>
<svg width="96px" height="97px" viewBox="0 0 96 97" version="1.1" xmlns="http://www.w3.org/2000/svg" xmlns:xlink="http://www.w3.org/1999/xlink" xmlns:sketch="http://www.bohemiancoding.com/sketch/ns">
    <!-- Generator: Sketch 3.1.1 (8761) - http://www.bohemiancoding.com/sketch -->
    <title>Fill 587</title>
    <desc>Created with Sketch.</desc>
    <defs></defs>
    <g id="Page-1" stroke="none" stroke-width="1" fill="none" fill-rule="evenodd" sketch:type="MSPage">
        <path d="M96,29.596 C96,29.592 95.996,29.588 95.996,29.584 L95.996,14.04 C95.996,14.04 96,14.036 96,14.032 C96,14.028 95.996,14.024 95.996,14.024 L95.996,6.032 C95.996,2.716 93.312,0.032 90,0.032 L6,0.032 C2.688,0.032 0,2.716 0,6.032 L0,90.032 C0,93.348 2.684,96.032 6,96.032 L90,96.032 C93.316,96.032 95.996,93.348 95.996,90.032 L95.996,61.604 C95.996,61.6 96,61.596 96,61.596 C96,61.592 95.996,61.588 95.996,61.584 L95.996,46.04 C95.996,46.04 96,46.036 96,46.032 C96,46.028 95.996,46.024 95.996,46.024 L95.996,29.604 C95.996,29.6 96,29.596 96,29.596 L96,29.596 Z M39.16,44.032 L27.592,28.82 C27.564,28.784 27.524,28.768 27.492,28.732 C27.4,28.628 27.296,28.548 27.184,28.464 C27.084,28.388 26.988,28.312 26.88,28.256 C26.772,28.204 26.652,28.172 26.536,28.14 C26.4,28.1 26.268,28.068 26.128,28.056 C26.084,28.056 26.044,28.032 26,28.032 L4,28.032 L4,16.032 L33.08,16.032 L39.66,24.84 C38.668,26.172 38.06,27.804 38.06,29.596 C38.06,34.012 41.644,37.592 46.064,37.596 C49.788,37.592 52.888,35.036 53.78,31.596 L92,31.596 L92,44.032 L39.16,44.032 L39.16,44.032 Z M46.064,25.596 C48.272,25.6 50.056,27.384 50.06,29.596 C50.056,31.804 48.272,33.588 46.064,33.596 C43.852,33.588 42.068,31.804 42.06,29.596 C42.068,27.384 43.852,25.6 46.064,25.596 L46.064,25.596 Z M6,4.032 L90,4.032 C91.104,4.032 91.996,4.928 92,6.032 L92,12.032 L57.916,12.032 C56.812,12.032 55.916,12.928 55.916,14.032 C55.916,15.136 56.812,16.032 57.916,16.032 L92,16.032 L92,27.596 L53.78,27.596 C52.888,24.148 49.788,21.596 46.064,21.596 C44.884,21.596 43.776,21.864 42.772,22.32 L35.688,12.836 C35.656,12.796 35.612,12.776 35.584,12.74 C35.492,12.636 35.388,12.552 35.276,12.468 C35.176,12.392 35.08,12.316 34.972,12.264 C34.86,12.208 34.744,12.176 34.624,12.14 C34.488,12.104 34.36,12.068 34.22,12.06 C34.172,12.056 34.132,12.032 34.084,12.032 L4,12.032 L4,6.032 C4.004,4.928 4.896,4.032 6,4.032 L6,4.032 Z M90,92.032 L84,92.032 L84,78.032 C84,76.928 83.104,76.032 82,76.032 L58.92,76.032 L47.668,60.84 C47.012,59.952 45.76,59.768 44.872,60.424 C43.984,61.084 43.796,62.336 44.456,63.22 L56.308,79.224 C56.336,79.264 56.384,79.28 56.416,79.32 C56.508,79.424 56.608,79.508 56.72,79.592 C56.82,79.668 56.916,79.744 57.024,79.8 C57.136,79.856 57.252,79.888 57.372,79.924 C57.504,79.96 57.636,79.992 57.772,80.004 C57.824,80.008 57.864,80.032 57.916,80.032 L80,80.032 L80,92.032 L44,92.032 L44,82.032 C44,80.928 43.104,80.032 42,80.032 L32.06,80.032 L32.06,69.312 C35.508,68.42 38.06,65.316 38.06,61.596 C38.06,57.176 34.48,53.596 30.064,53.596 C25.644,53.596 22.064,57.176 22.064,61.596 C22.064,65.316 24.62,68.42 28.064,69.312 L28.064,82.032 C28.064,83.136 28.956,84.032 30.064,84.032 L40,84.032 L40,92.032 L16,92.032 L16,42.032 C16,40.928 15.104,40.032 14,40.032 C12.896,40.032 12,40.928 12,42.032 L12,92.032 L6,92.032 C4.896,92.028 4.004,91.136 4,90.032 L4,32.032 L25.008,32.032 L36.576,47.244 C36.604,47.28 36.648,47.296 36.68,47.332 C36.768,47.436 36.872,47.516 36.98,47.596 C37.08,47.676 37.176,47.752 37.288,47.808 C37.4,47.86 37.516,47.892 37.636,47.924 C37.768,47.96 37.9,47.996 38.036,48.004 C38.084,48.008 38.12,48.032 38.168,48.032 L92,48.032 L92,59.596 L73.776,59.596 C72.888,56.148 69.784,53.596 66.064,53.596 C61.644,53.596 58.064,57.176 58.064,61.596 C58.064,66.012 61.644,69.592 66.064,69.596 C69.784,69.592 72.888,67.04 73.776,63.596 L92,63.596 L92,90.032 C91.996,91.136 91.1,92.028 90,92.032 L90,92.032 Z M30.064,65.596 C27.852,65.592 26.068,63.804 26.06,61.596 C26.068,59.384 27.852,57.6 30.064,57.596 C32.272,57.6 34.056,59.384 34.064,61.596 C34.056,63.804 32.272,65.592 30.064,65.596 L30.064,65.596 Z M70.052,61.656 C70.008,63.836 68.248,65.592 66.064,65.596 C63.852,65.592 62.068,63.804 62.06,61.596 C62.068,59.384 63.852,57.6 66.064,57.596 C68.248,57.6 70.008,59.352 70.052,61.532 C70.048,61.552 70.04,61.572 70.04,61.596 C70.04,61.616 70.048,61.636 70.052,61.656 L70.052,61.656 Z" id="Fill-587" fill="#FFFFFF" sketch:type="MSShapeGroup"></path>
    </g>
</svg>