<?xml version="1.0" encoding="UTF-8" standalone="no"?>
<svg width="96px" height="96px" viewBox="0 0 96 96" version="1.1" xmlns="http://www.w3.org/2000/svg" xmlns:xlink="http://www.w3.org/1999/xlink" xmlns:sketch="http://www.bohemiancoding.com/sketch/ns">
    <!-- Generator: Sketch 3.1.1 (8761) - http://www.bohemiancoding.com/sketch -->
    <title>Fill 440</title>
    <desc>Created with Sketch.</desc>
    <defs></defs>
    <g id="Page-1" stroke="none" stroke-width="1" fill="none" fill-rule="evenodd" sketch:type="MSPage">
        <path d="M94.88,58.276 C94.884,58.26 94.876,58.248 94.876,58.232 C95.596,54.928 95.996,51.512 95.996,47.992 C95.996,35.824 91.432,24.748 83.972,16.288 C83.88,16.16 83.8,16.02 83.672,15.912 C83.648,15.892 83.616,15.888 83.592,15.868 C78.74,10.496 72.716,6.22 65.892,3.476 C65.836,3.456 65.788,3.416 65.732,3.4 C65.716,3.4 65.704,3.404 65.692,3.4 C60.212,1.224 54.256,-0.008 48,-0.008 C34.544,-0.008 22.4,5.544 13.684,14.464 C13.612,14.528 13.548,14.604 13.484,14.684 C8.012,20.352 3.948,27.36 1.784,35.172 C1.772,35.2 1.748,35.216 1.732,35.244 C1.628,35.488 1.58,35.744 1.572,35.996 C0.584,39.836 0,43.84 0,47.992 C0,50.22 0.204,52.396 0.5,54.544 C0.5,54.632 0.468,54.712 0.48,54.804 C0.496,54.912 0.552,55.004 0.584,55.108 C2.092,65.212 6.712,74.284 13.488,81.3 C13.548,81.38 13.612,81.452 13.684,81.52 C20.304,88.296 28.904,93.124 38.564,95.052 C38.584,95.056 38.6,95.072 38.62,95.076 C38.656,95.084 38.688,95.072 38.724,95.076 C41.728,95.664 44.824,95.992 48,95.992 C51.116,95.992 54.156,95.668 57.108,95.1 C57.124,95.1 57.14,95.108 57.156,95.108 C57.188,95.104 57.212,95.084 57.244,95.08 C70.56,92.48 81.868,84.364 88.78,73.216 C88.796,73.2 88.82,73.192 88.836,73.176 C89.02,72.964 89.152,72.724 89.232,72.476 C91.772,68.2 93.684,63.516 94.804,58.52 C94.824,58.436 94.872,58.364 94.88,58.276 L94.88,58.276 Z M91.248,55.928 C90.296,55.868 89.324,55.828 88.32,55.828 C86.512,55.828 84.708,55.976 82.988,56.224 C81.632,53.744 79.028,52.04 76,52.04 C75.224,52.04 74.488,52.188 73.78,52.392 C71.72,48.688 70.064,44.828 68.784,40.856 C71.776,39.128 73.808,35.932 73.808,32.232 C73.808,31.076 73.572,29.98 73.212,28.948 C76.348,26.464 79.572,23.508 82.32,20.5 C88.368,28.036 92,37.576 92,47.992 C92,50.704 91.72,53.352 91.248,55.928 L91.248,55.928 Z M86.804,68.728 C85.956,67.972 85.1,67.192 84.54,66.632 C83.868,65.956 83.24,65.248 82.604,64.552 C83.468,63.288 83.976,61.76 83.992,60.116 C85.36,59.94 86.82,59.824 88.32,59.828 C89,59.828 89.672,59.848 90.328,59.88 C89.46,62.976 88.292,65.948 86.804,68.728 L86.804,68.728 Z M71.996,60.04 C72.004,57.832 73.792,56.044 76,56.04 C78.208,56.044 79.996,57.832 80,60.04 C79.996,62.248 78.208,64.036 76,64.04 C73.792,64.036 72.004,62.248 71.996,60.04 L71.996,60.04 Z M57.808,32.232 C57.816,28.92 60.496,26.24 63.808,26.232 C67.12,26.24 69.8,28.92 69.808,32.232 C69.8,35.544 67.12,38.228 63.808,38.232 C60.496,38.228 57.816,35.544 57.808,32.232 L57.808,32.232 Z M79.66,17.484 C77.148,20.272 74.104,23.1 71.14,25.48 C69.736,23.952 67.88,22.848 65.76,22.428 C65.748,21.82 65.716,21.22 65.716,20.596 C65.716,16.508 66.068,12.196 66.772,8.24 C71.368,10.416 75.552,13.324 79.112,16.88 C79.304,17.072 79.472,17.288 79.66,17.484 L79.66,17.484 Z M63,6.672 C62.132,11.152 61.72,16 61.72,20.596 C61.72,21.228 61.748,21.828 61.764,22.444 C57.224,23.388 53.808,27.412 53.808,32.232 C53.808,33.288 54.016,34.284 54.32,35.24 C52.336,36.024 50.308,36.708 48.232,37.296 C47.056,33.78 45.312,30.536 43.108,27.636 C43.66,26.548 44,25.34 44,24.04 C44,19.62 40.42,16.044 36,16.04 C34.196,16.04 32.552,16.66 31.212,17.668 C27.772,15.98 23.796,14.788 19.76,14.268 C27.408,7.86 37.24,3.992 48,3.992 C53.28,3.992 58.312,4.968 63,6.672 L63,6.672 Z M46,47.992 C46,52.54 44.94,56.812 43.136,60.668 C41.572,59.82 39.816,59.296 37.912,59.296 C35.468,59.296 33.232,60.116 31.408,61.468 C25.084,55.588 15.928,52.28 6.828,52.268 C5.956,52.268 5.092,52.372 4.22,52.432 C4.076,50.972 4,49.492 4,47.992 C4,44.824 4.348,41.74 4.984,38.764 C6.652,39.436 8.348,40.052 10.056,40.6 C10.344,43.648 12.876,46.04 16,46.04 C18.196,46.04 20.092,44.848 21.14,43.092 C24.256,43.524 27.42,43.792 30.652,43.792 C35.724,43.792 40.652,43.208 45.412,42.164 C45.784,44.044 46,45.984 46,47.992 L46,47.992 Z M19.756,81.708 C23.608,81.216 27.416,80.116 30.728,78.56 C32.56,80.156 34.908,81.156 37.504,81.252 C37.544,81.504 37.6,81.748 37.632,82.004 C37.764,83.028 37.824,84.148 37.824,85.3 C37.824,87.104 37.636,88.924 37.38,90.648 C30.796,89.012 24.792,85.936 19.756,81.708 L19.756,81.708 Z M28.184,75.324 C24.516,76.896 20.028,77.876 15.872,77.988 C10.344,72.068 6.42,64.66 4.824,56.392 C5.492,56.352 6.152,56.268 6.828,56.268 C14.956,56.252 23.248,59.316 28.672,64.368 C27.572,66.08 26.916,68.108 26.916,70.296 C26.916,72.116 27.4,73.808 28.184,75.324 L28.184,75.324 Z M37.912,77.296 C34.048,77.288 30.92,74.16 30.912,70.296 C30.92,66.428 34.048,63.3 37.912,63.292 C41.78,63.3 44.904,66.428 44.916,70.296 C44.904,74.16 41.78,77.288 37.912,77.296 L37.912,77.296 Z M16,42.04 C14.896,42.04 14,41.144 14,40.04 C14,38.936 14.896,38.044 16,38.04 C17.104,38.044 17.996,38.936 18,40.04 C17.996,41.144 17.104,42.04 16,42.04 L16,42.04 Z M30.652,39.792 C27.684,39.792 24.772,39.548 21.912,39.16 C21.48,36.264 19.012,34.044 16,34.04 C13.92,34.044 12.092,35.1 11.016,36.704 C9.324,36.156 7.64,35.536 5.992,34.86 C7.984,28.484 11.42,22.764 15.872,17.996 C20.204,18.112 24.872,19.176 28.656,20.88 C28.236,21.848 28,22.916 28,24.04 C28,28.46 31.58,32.04 36,32.04 C37.636,32.04 39.156,31.544 40.42,30.704 C42.088,33.028 43.42,35.576 44.364,38.308 C39.944,39.264 35.364,39.792 30.652,39.792 L30.652,39.792 Z M36,28.04 C33.788,28.036 32.004,26.248 32,24.04 C32.004,21.832 33.788,20.044 36,20.04 C38.208,20.044 39.996,21.832 40,24.04 C39.996,26.248 38.208,28.036 36,28.04 L36,28.04 Z M41.304,91.428 C41.604,89.472 41.824,87.4 41.824,85.3 C41.824,84.008 41.756,82.724 41.6,81.492 C41.564,81.212 41.5,80.936 41.456,80.66 C45.784,79.176 48.912,75.12 48.912,70.296 C48.912,67.608 47.912,65.18 46.312,63.272 C48.636,58.672 50,53.492 50,47.992 C50,45.64 49.732,43.36 49.28,41.152 C51.672,40.476 54.016,39.688 56.296,38.768 C58.128,40.872 60.796,42.232 63.808,42.232 C64.212,42.232 64.596,42.16 64.992,42.112 C66.352,46.336 68.12,50.452 70.324,54.408 C68.888,55.852 68,57.84 68,60.04 C68,60.872 68.164,61.656 68.396,62.408 C65.94,64.224 63.648,66.328 61.696,68.86 C61.376,69.272 61.104,69.7 60.804,70.124 C60.54,70.088 60.276,70.04 60,70.04 C56.688,70.044 54,72.728 54,76.04 C54,77.784 54.752,79.336 55.94,80.432 C55.16,83.38 54.82,86.556 54.82,89.588 C54.82,90.212 54.872,90.792 54.9,91.4 C52.648,91.752 50.356,91.992 48,91.992 C45.716,91.992 43.492,91.764 41.304,91.428 L41.304,91.428 Z M60,78.04 C58.896,78.04 58.004,77.144 58,76.04 C58.004,74.936 58.896,74.044 60,74.04 C61.104,74.044 61.996,74.936 62,76.04 C61.996,77.144 61.104,78.04 60,78.04 L60,78.04 Z M79.112,79.104 C73.608,84.608 66.64,88.608 58.86,90.584 C58.852,90.248 58.816,89.932 58.816,89.588 C58.816,87.04 59.084,84.376 59.648,82.004 C59.768,82.012 59.88,82.04 60,82.04 C63.312,82.04 65.996,79.356 65.996,76.04 C65.996,74.468 65.38,73.044 64.388,71.976 C64.548,71.752 64.692,71.524 64.86,71.304 C66.512,69.16 68.448,67.388 70.5,65.828 C71.932,67.192 73.864,68.04 76,68.04 C77.292,68.04 78.492,67.708 79.572,67.164 C80.276,67.936 80.968,68.716 81.712,69.46 C82.52,70.268 83.684,71.312 84.712,72.22 C83.072,74.696 81.204,77.008 79.112,79.104 L79.112,79.104 Z" id="Fill-440" fill="#FFFFFF" sketch:type="MSShapeGroup"></path>
    </g>
</svg>