<?xml version="1.0" encoding="UTF-8" standalone="no"?>
<svg width="120px" height="115px" viewBox="0 0 120 115" version="1.1" xmlns="http://www.w3.org/2000/svg" xmlns:xlink="http://www.w3.org/1999/xlink" xmlns:sketch="http://www.bohemiancoding.com/sketch/ns">
    <!-- Generator: Sketch 3.1.1 (8761) - http://www.bohemiancoding.com/sketch -->
    <title>commandline</title>
    <desc>Created with Sketch.</desc>
    <defs></defs>
    <g id="Page-1" stroke="none" stroke-width="1" fill="none" fill-rule="evenodd" sketch:type="MSPage">
        <g id="Desktop-HD" sketch:type="MSArtboardGroup" transform="translate(-898.000000, -512.000000)" fill="#FFFFFF">
            <path d="M1008.47676,627 L907.518093,627 C902.27028,627 898,622.907473 898,617.878103 L898,521.116966 C898,516.092527 902.27028,512 907.518093,512 L1008.47676,512 C1013.72972,512 1018,516.092527 1018,521.116966 L1018,617.878103 C1018,622.907473 1013.72972,627 1008.47676,627 L1008.47676,627 Z M907.518093,516.930755 C905.110273,516.930755 903.144915,518.804442 903.144915,521.116966 L903.144915,617.878103 C903.144915,620.190627 905.110273,622.069245 907.518093,622.069245 L1008.47676,622.069245 C1010.88973,622.069245 1012.85508,620.190627 1012.85508,617.878103 L1012.85508,521.116966 C1012.85508,518.804442 1010.88973,516.930755 1008.47676,516.930755 L907.518093,516.930755 L907.518093,516.930755 Z M1002.84308,617.212451 L912.935689,617.212451 C910.095695,617.212451 907.790773,614.998542 907.790773,612.281696 L907.790773,542.279767 C907.790773,539.562921 910.095695,537.349012 912.935689,537.349012 L1002.84308,537.349012 C1005.67793,537.349012 1007.988,539.562921 1007.988,542.279767 L1007.988,612.281696 C1007.988,614.998542 1005.67793,617.212451 1002.84308,617.212451 L1002.84308,617.212451 Z M912.935689,612.281696 L1002.84308,612.281696 L1002.84308,542.284698 L912.935689,542.284698 L912.935689,612.281696 Z M942.052064,569.844169 L928.627086,557.862035 C927.339943,556.712655 925.252502,556.712655 923.965358,557.862035 C922.678214,559.011414 922.678214,560.875434 923.965358,562.024814 L935.136167,572 L923.965358,581.975186 C922.678214,583.124566 922.678214,584.988586 923.965358,586.137965 C925.252502,587.287345 927.339943,587.287345 928.627086,586.137965 L942.052064,574.149876 C942.712309,573.560298 943.019089,572.774194 942.999082,572 C943.019089,571.219851 942.712309,570.439702 942.052064,569.844169 Z M973,571.94 C973,574.67 971.986471,576.89 970.734465,576.89 L955.265535,576.89 C954.013529,576.89 953,574.67 953,571.94 C953,569.21 954.013529,567 955.265535,567 L970.734465,567 C971.986471,567 973,569.21 973,571.94" id="commandline" sketch:type="MSShapeGroup"></path>
        </g>
    </g>
</svg>