<?xml version="1.0" encoding="UTF-8" standalone="no"?>
<svg width="121px" height="142px" viewBox="0 0 121 142" version="1.1" xmlns="http://www.w3.org/2000/svg" xmlns:xlink="http://www.w3.org/1999/xlink" xmlns:sketch="http://www.bohemiancoding.com/sketch/ns">
    <!-- Generator: Sketch 3.1.1 (8761) - http://www.bohemiancoding.com/sketch -->
    <title>textclipboard</title>
    <desc>Created with Sketch.</desc>
    <defs></defs>
    <g id="Page-1" stroke="none" stroke-width="1" fill="none" fill-rule="evenodd" sketch:type="MSPage">
        <g id="Desktop-HD" sketch:type="MSArtboardGroup" transform="translate(-408.000000, -498.000000)" fill="#FFFFFF">
            <path d="M516.701883,506.612512 L483.791259,506.612512 C477.112375,495.357205 460.041324,494.903362 453.136251,506.612512 L420.357571,506.612512 C413.835764,506.612512 408.532868,511.72581 408.532868,518.006997 L408.532868,628.605515 C408.532868,634.886702 413.835764,640 420.357571,640 L516.701883,640 C523.22369,640 528.532868,634.886702 528.532868,628.605515 L528.532868,518.006997 C528.532868,511.72581 523.22369,506.612512 516.701883,506.612512 L516.701883,506.612512 Z M490.042895,524.336595 L509.457524,524.336595 C509.809375,524.336595 510.092112,524.6089 510.092112,524.94777 L510.092112,621.676845 C510.092112,622.015714 509.809375,622.28802 509.457524,622.28802 L427.614496,622.28802 C427.262645,622.28802 426.979908,622.015714 426.979908,621.676845 L426.979908,524.94777 C426.979908,524.6089 427.262645,524.336595 427.614496,524.336595 L446.966294,524.336595 C436.925978,527.574008 433.149864,533.570787 433.055618,540.983556 C433.011637,544.910811 436.379353,548.105866 440.457053,548.105866 L496.602401,548.105866 C500.680101,548.105866 503.997552,544.910811 503.997552,540.80807 C503.997552,533.383199 500.095778,526.793398 490.042895,524.336595 L490.042895,524.336595 Z M457.082007,514.878506 C457.082007,508.905932 462.127298,504.046786 468.611407,504.046786 C474.812778,504.046786 479.858069,508.905932 479.858069,514.878506 C479.858069,520.929746 480.134523,528.366721 489.879536,530.763012 C494.422182,531.882491 497.714501,536.112308 497.714501,540.983556 C497.714501,541.576578 497.21814,542.054626 496.602401,542.054626 L440.457053,542.054626 C439.841314,542.054626 439.33867,541.576578 439.33867,540.80807 C439.33867,536.130462 442.618423,531.912747 447.129654,530.775114 C456.830685,528.336464 457.082007,520.929746 457.082007,514.878506 L457.082007,514.878506 Z M522.249817,628.605515 C522.249817,631.552469 519.761729,633.94876 516.701883,633.94876 L420.357571,633.94876 C417.304008,633.94876 414.81592,631.552469 414.81592,628.605515 L414.81592,518.006997 C414.81592,515.060043 417.304008,512.663752 420.357571,512.663752 L451.031429,512.663752 C450.748691,514.733276 450.798956,513.771129 450.798956,518.285354 L427.614496,518.285354 C423.800684,518.285354 420.696856,521.274667 420.696856,524.94777 L420.696856,621.676845 C420.696856,625.349947 423.800684,628.33926 427.614496,628.33926 L509.457524,628.33926 C513.271336,628.33926 516.375164,625.349947 516.375164,621.676845 L516.375164,524.94777 C516.375164,521.274667 513.271336,518.285354 509.457524,518.285354 L486.14112,518.285354 C486.14112,513.77718 486.191385,514.733276 485.908647,512.663752 L516.701883,512.663752 C519.761729,512.663752 522.249817,515.060043 522.249817,518.006997 L522.249817,628.605515 L522.249817,628.605515 Z M464.175572,515.066095 C464.175572,512.754521 466.123318,510.872585 468.529727,510.872585 C470.936136,510.872585 472.890165,512.754521 472.890165,515.066095 C472.890165,517.38372 470.936136,519.265655 468.529727,519.265655 C466.123318,519.265655 464.175572,517.38372 464.175572,515.066095 L464.175572,515.066095 Z M442.191175,566.562149 C442.191175,564.885955 443.598579,563.530477 445.332701,563.530477 L491.682772,563.530477 C493.416894,563.530477 494.824297,564.885955 494.824297,566.562149 C494.824297,568.232291 493.416894,569.587769 491.682772,569.587769 L445.332701,569.587769 C443.598579,569.587769 442.191175,568.232291 442.191175,566.562149 L442.191175,566.562149 Z M442.191175,582.476911 C442.191175,580.806768 443.598579,579.45129 445.332701,579.45129 L491.682772,579.45129 C493.416894,579.45129 494.824297,580.806768 494.824297,582.476911 C494.824297,584.153104 493.416894,585.502531 491.682772,585.502531 L445.332701,585.502531 C443.598579,585.502531 442.191175,584.153104 442.191175,582.476911 L442.191175,582.476911 Z M442.191175,598.397724 C442.191175,596.727581 443.598579,595.372103 445.332701,595.372103 L477.728114,595.372103 C479.462237,595.372103 480.86964,596.727581 480.86964,598.397724 C480.86964,600.073917 479.462237,601.423344 477.728114,601.423344 L445.332701,601.423344 C443.598579,601.423344 442.191175,600.073917 442.191175,598.397724 L442.191175,598.397724 Z" id="textclipboard" sketch:type="MSShapeGroup"></path>
        </g>
    </g>
</svg>